<svg width="12" height="16" viewBox="0 0 12 16" fill="none" xmlns="http://www.w3.org/2000/svg">
<path d="M6 16C5.68446 15.9995 5.38034 15.8804 5.14662 15.6658C4.00757 14.6131 2.98969 13.4335 2.11238 12.1493C0.821825 10.3851 0.0857596 8.26835 0 6.07467C0 4.46356 0.632141 2.91845 1.75736 1.77923C2.88258 0.640008 4.4087 0 6 0C7.5913 0 9.11742 0.640008 10.2426 1.77923C11.3679 2.91845 12 4.46356 12 6.07467C11.9139 8.26855 11.1779 10.3855 9.88762 12.1502C9.00998 13.4344 7.99181 14.614 6.8525 15.6667C6.61901 15.881 6.31517 15.9998 6 16ZM6 1.35022C4.76268 1.3514 3.57635 1.8495 2.70135 2.73523C1.82635 3.62095 1.33414 4.82195 1.33275 6.07467C1.41798 7.99676 2.07402 9.84809 3.2151 11.3867C4.01932 12.5699 4.9536 13.6568 6 14.6267C7.0471 13.6575 7.98145 12.5705 8.7849 11.3867C9.92598 9.84809 10.582 7.99676 10.6673 6.07467C10.6661 4.82179 10.174 3.62057 9.29896 2.73465C8.42393 1.84873 7.23748 1.35051 6 1.34933V1.35022ZM6 8.77511C5.47268 8.77511 4.9572 8.61681 4.51873 8.32022C4.08027 8.02362 3.73851 7.60206 3.53668 7.10884C3.33484 6.61561 3.28198 6.07286 3.3848 5.54923C3.48761 5.02559 3.74147 4.54457 4.11428 4.167C4.48709 3.78942 4.96211 3.53224 5.47928 3.42798C5.99645 3.32372 6.53254 3.37705 7.01977 3.58124C7.507 3.78542 7.92349 4.13129 8.21658 4.57512C8.50967 5.01894 8.6662 5.54078 8.66637 6.07467C8.66568 6.79042 8.38453 7.47665 7.88464 7.98276C7.38475 8.48887 6.70695 8.77352 6 8.77422V8.77511ZM6 4.72533C5.7362 4.72533 5.47832 4.80454 5.25899 4.95295C5.03965 5.10135 4.86872 5.31228 4.76781 5.55905C4.66689 5.80583 4.64053 6.07736 4.69206 6.3393C4.74359 6.60124 4.8707 6.84182 5.05729 7.03062C5.24389 7.21942 5.48161 7.34794 5.74036 7.39994C5.99912 7.45194 6.26729 7.42507 6.51097 7.32274C6.75464 7.22041 6.96286 7.04721 7.1093 6.82505C7.25573 6.60289 7.3338 6.34175 7.33363 6.07467C7.33339 5.71664 7.19281 5.37334 6.94276 5.12018C6.69271 4.86701 6.35363 4.72468 6 4.72444V4.72533Z" fill="url(#paint0_linear_17_536)"/>
<defs>
<linearGradient id="paint0_linear_17_536" x1="3" y1="1.67638e-07" x2="10.5" y2="15" gradientUnits="userSpaceOnUse">
<stop stop-color="#B459D8"/>
<stop offset="1" stop-color="#F15091"/>
</linearGradient>
</defs>
</svg>
